<svg width="14" height="17" viewBox="0 0 14 17" fill="none" xmlns="http://www.w3.org/2000/svg">
<path d="M13.5 7C13.5 12.0556 7 16.3889 7 16.3889C7 16.3889 0.5 12.0556 0.5 7C0.5 5.27609 1.18482 3.62279 2.40381 2.40381C3.62279 1.18482 5.27609 0.5 7 0.5C8.72391 0.5 10.3772 1.18482 11.5962 2.40381C12.8152 3.62279 13.5 5.27609 13.5 7Z" stroke="white" stroke-linecap="round" stroke-linejoin="round"/>
<path d="M6.99998 9.16671C8.1966 9.16671 9.16665 8.19666 9.16665 7.00004C9.16665 5.80342 8.1966 4.83337 6.99998 4.83337C5.80336 4.83337 4.83331 5.80342 4.83331 7.00004C4.83331 8.19666 5.80336 9.16671 6.99998 9.16671Z" stroke="white" stroke-linecap="round" stroke-linejoin="round"/>
</svg>
