<svg width="14" height="14" viewBox="0 0 14 14" fill="none" xmlns="http://www.w3.org/2000/svg">
<path d="M8.53682 2.9847C9.14354 3.10307 9.70114 3.3998 10.1382 3.83691C10.5754 4.27401 10.8721 4.83161 10.9905 5.43833L8.53682 2.9847ZM8.53682 0.5C9.79735 0.640035 10.9728 1.20452 11.8702 2.10077C12.7676 2.99702 13.3335 4.17176 13.4752 5.43212L8.53682 0.5ZM12.854 10.3891V12.2526C12.8547 12.4256 12.8192 12.5968 12.7499 12.7554C12.6806 12.9139 12.579 13.0562 12.4515 13.1731C12.324 13.2901 12.1735 13.3791 12.0096 13.4345C11.8458 13.4899 11.6721 13.5105 11.4998 13.495C9.58836 13.2873 7.75228 12.6341 6.13909 11.588C4.63823 10.6342 3.36576 9.36177 2.41205 7.86091C1.36225 6.24039 0.708938 4.39538 0.505042 2.47533C0.489519 2.30356 0.509934 2.13043 0.564985 1.96698C0.620037 1.80353 0.70852 1.65333 0.824801 1.52594C0.941082 1.39856 1.08261 1.29679 1.24038 1.2271C1.39815 1.15741 1.5687 1.12134 1.74118 1.12117H3.6047C3.90616 1.11821 4.19841 1.22496 4.42699 1.42153C4.65556 1.6181 4.80486 1.89109 4.84705 2.18959C4.9257 2.78596 5.07157 3.37152 5.28187 3.93509C5.36544 4.15742 5.38353 4.39906 5.33399 4.63135C5.28445 4.86365 5.16935 5.07688 5.00234 5.24577L4.21345 6.03466C5.09773 7.5898 6.38536 8.87743 7.94049 9.7617L8.72938 8.97281C8.89827 8.8058 9.1115 8.6907 9.3438 8.64116C9.5761 8.59162 9.81773 8.60971 10.0401 8.69328C10.6036 8.90358 11.1892 9.04945 11.7856 9.12811C12.0873 9.17067 12.3629 9.32266 12.5599 9.55516C12.7569 9.78766 12.8615 10.0844 12.854 10.3891Z" stroke="white" stroke-linecap="round" stroke-linejoin="round"/>
</svg>
