<svg width="16" height="16" viewBox="0 0 16 16" fill="none" xmlns="http://www.w3.org/2000/svg">
<path d="M11 5C12.1935 5 13.3381 5.47411 14.182 6.31802C15.0259 7.16193 15.5 8.30653 15.5 9.5V14.75H12.5V9.5C12.5 9.10218 12.342 8.72064 12.0607 8.43934C11.7794 8.15804 11.3978 8 11 8C10.6022 8 10.2206 8.15804 9.93934 8.43934C9.65804 8.72064 9.5 9.10218 9.5 9.5V14.75H6.5V9.5C6.5 8.30653 6.97411 7.16193 7.81802 6.31802C8.66193 5.47411 9.80653 5 11 5V5Z" stroke="white" stroke-linecap="round" stroke-linejoin="round"/>
<path d="M3.5 5.75H0.5V14.75H3.5V5.75Z" stroke="white" stroke-linecap="round" stroke-linejoin="round"/>
<path d="M2 3.5C2.82843 3.5 3.5 2.82843 3.5 2C3.5 1.17157 2.82843 0.5 2 0.5C1.17157 0.5 0.5 1.17157 0.5 2C0.5 2.82843 1.17157 3.5 2 3.5Z" stroke="white" stroke-linecap="round" stroke-linejoin="round"/>
</svg>
