<svg width="16" height="16" viewBox="0 0 16 16" fill="none" xmlns="http://www.w3.org/2000/svg">
<path d="M11.75 0.5H4.25C2.17893 0.5 0.5 2.17893 0.5 4.25V11.75C0.5 13.8211 2.17893 15.5 4.25 15.5H11.75C13.8211 15.5 15.5 13.8211 15.5 11.75V4.25C15.5 2.17893 13.8211 0.5 11.75 0.5Z" stroke="white" stroke-linecap="round" stroke-linejoin="round"/>
<path d="M11 7.52736C11.0926 8.15154 10.986 8.78902 10.6953 9.34912C10.4047 9.90922 9.94488 10.3634 9.38124 10.6471C8.8176 10.9308 8.17886 11.0296 7.55586 10.9293C6.93287 10.8291 6.35734 10.5349 5.91115 10.0887C5.46496 9.64254 5.17082 9.06702 5.07058 8.44402C4.97033 7.82102 5.06907 7.18228 5.35277 6.61864C5.63647 6.055 6.09066 5.59517 6.65076 5.30454C7.21086 5.01392 7.84834 4.9073 8.47252 4.99986C9.10922 5.09427 9.69866 5.39096 10.1538 5.84609C10.6089 6.30122 10.9056 6.89067 11 7.52736Z" stroke="white" stroke-linecap="round" stroke-linejoin="round"/>
<path d="M12.125 3.875H12.1325" stroke="white" stroke-linecap="round" stroke-linejoin="round"/>
</svg>
