<svg width="19" height="14" viewBox="0 0 19 14" fill="none" xmlns="http://www.w3.org/2000/svg">
<path d="M18.1232 2.4799C18.026 2.09162 17.8281 1.73586 17.5494 1.44856C17.2707 1.16125 16.9211 0.952582 16.536 0.843619C15.1288 0.5 9.5 0.5 9.5 0.5C9.5 0.5 3.8712 0.5 2.464 0.876344C2.07886 0.985308 1.72929 1.19398 1.45061 1.48128C1.17193 1.76858 0.973997 2.12434 0.876812 2.51262C0.619273 3.94073 0.493297 5.38945 0.500468 6.84058C0.491288 8.30263 0.617272 9.7624 0.876812 11.2013C0.983955 11.5775 1.18632 11.9197 1.46435 12.1949C1.74239 12.47 2.08669 12.6689 2.464 12.7721C3.8712 13.1484 9.5 13.1484 9.5 13.1484C9.5 13.1484 15.1288 13.1484 16.536 12.7721C16.9211 12.6631 17.2707 12.4545 17.5494 12.1672C17.8281 11.8799 18.026 11.5241 18.1232 11.1358C18.3787 9.71846 18.5047 8.28078 18.4995 6.84058C18.5087 5.37853 18.3827 3.91876 18.1232 2.4799V2.4799Z" stroke="white" stroke-linecap="round" stroke-linejoin="round"/>
<path d="M7.65918 9.51567L12.3635 6.84035L7.65918 4.16504V9.51567Z" stroke="white" stroke-linecap="round" stroke-linejoin="round"/>
</svg>
